<svg
    version="1.1"
    id="svg1"
    width="472"
    height="45"
    viewBox="90 340 945 90"
    xmlns="http://www.w3.org/2000/svg">
    <defs id="defs1">
      <clipPath clipPathUnits="userSpaceOnUse" id="clipPath3">
        <path d="M 0,595.276 H 841.89 V 0 H 0 Z" />
      </clipPath>
      <clipPath clipPathUnits="userSpaceOnUse" id="clipPath5">
        <path d="M 0,595.276 H 841.89 V 0 H 0 Z" />
      </clipPath>
      <clipPath clipPathUnits="userSpaceOnUse" id="clipPath7">
        <path d="M 0,595.276 H 841.89 V 0 H 0 Z" />
      </clipPath>
      <clipPath clipPathUnits="userSpaceOnUse" id="clipPath9">
        <path d="M 0,595.276 H 841.89 V 0 H 0 Z" />
      </clipPath>
      <clipPath clipPathUnits="userSpaceOnUse" id="clipPath11">
        <path d="M 0,595.276 H 841.89 V 0 H 0 Z" />
      </clipPath>
      <clipPath clipPathUnits="userSpaceOnUse" id="clipPath13">
        <path d="M 0,595.276 H 841.89 V 0 H 0 Z" />
      </clipPath>
      <clipPath clipPathUnits="userSpaceOnUse" id="clipPath15">
        <path d="M 0,595.276 H 841.89 V 0 H 0 Z" />
      </clipPath>
      <clipPath clipPathUnits="userSpaceOnUse" id="clipPath17">
        <path d="M 0,595.276 H 841.89 V 0 H 0 Z" />
      </clipPath>
      <clipPath clipPathUnits="userSpaceOnUse" id="clipPath19">
        <path d="M 0,595.276 H 841.89 V 0 H 0 Z" />
      </clipPath>
      <clipPath clipPathUnits="userSpaceOnUse" id="clipPath21">
        <path d="M 0,595.276 H 841.89 V 0 H 0 Z" />
      </clipPath>
      <clipPath clipPathUnits="userSpaceOnUse" id="clipPath23">
        <path d="M 0,595.276 H 841.89 V 0 H 0 Z" />
      </clipPath>
      <clipPath clipPathUnits="userSpaceOnUse" id="clipPath25">
        <path d="M 0,595.276 H 841.89 V 0 H 0 Z" />
      </clipPath>
      <clipPath clipPathUnits="userSpaceOnUse" id="clipPath27">
        <path d="M 0,595.276 H 841.89 V 0 H 0 Z" />
      </clipPath>
      <clipPath clipPathUnits="userSpaceOnUse" id="clipPath29">
        <path d="M 0,595.276 H 841.89 V 0 H 0 Z" />
      </clipPath>
      <clipPath clipPathUnits="userSpaceOnUse" id="clipPath31">
        <path d="M 0,595.276 H 841.89 V 0 H 0 Z" />
      </clipPath>
      <clipPath clipPathUnits="userSpaceOnUse" id="clipPath33">
        <path d="M 0,595.276 H 841.89 V 0 H 0 Z" />
      </clipPath>
      <clipPath clipPathUnits="userSpaceOnUse" id="clipPath35">
        <path d="M 0,595.276 H 841.89 V 0 H 0 Z" />
      </clipPath>
    </defs>
    <g id="g1">
      <g id="group-MC0">
        <path id="path2"
          d="m 107.769,332.997 h 5.68 v -5.606 h -5.68 z m -6.863,-20.364 h 5.68 v -5.609 h -5.68 z m 0,20.364 h 5.68 v -5.606 h -5.68 z m -6.863,-20.364 h 5.683 v -5.609 h -5.683 z m 0,20.364 h 5.683 v -5.606 H 94.043 Z M 87.18,312.633 h 5.684 v -5.609 H 87.18 Z m 0,20.364 h 5.684 v -5.606 H 87.18 Z M 80.321,292.27 h 5.68 v -5.683 h -5.68 z m 0,6.785 h 5.68 v -5.606 h -5.68 z m 0,6.789 h 5.68 v -5.608 h -5.68 z m 0,6.789 h 5.68 v -5.609 h -5.68 z m 0,6.785 h 5.68 v -5.605 h -5.68 z m 0,6.79 h 5.68 v -5.605 h -5.68 z m 0,6.789 h 5.68 v -5.606 h -5.68 z"
          style="fill:#000000;fill-opacity:1;fill-rule:nonzero;stroke:none"
          transform="matrix(1.3333333,0,0,-1.3333333,0,793.70133)"
          clip-path="url(#clipPath3)" />
        <path id="path4"
          d="m 144.69,299.055 h 5.682 v -5.606 h -5.682 z m 0,6.789 h 5.682 v -5.608 h -5.682 z m 0,6.789 h 5.682 v -5.609 h -5.682 z m 0,6.785 h 5.682 v -5.605 h -5.682 z m 0,6.79 h 5.682 v -5.605 h -5.682 z m -6.861,-33.938 h 5.68 v -5.683 h -5.68 z m 0,40.727 h 5.68 v -5.606 h -5.68 z m -6.863,-40.727 h 5.682 v -5.683 h -5.682 z m 0,40.727 h 5.682 v -5.606 h -5.682 z m -6.862,-40.727 h 5.684 v -5.683 h -5.684 z m 0,40.727 h 5.684 v -5.606 h -5.684 z m -6.861,-33.942 h 5.682 v -5.606 h -5.682 z m 0,6.789 h 5.682 v -5.608 h -5.682 z m 0,6.789 h 5.682 v -5.609 h -5.682 z m 0,6.785 h 5.682 v -5.605 h -5.682 z m 0,6.79 h 5.682 v -5.605 h -5.682 z"
          style="fill:#000000;fill-opacity:1;fill-rule:nonzero;stroke:none"
          transform="matrix(1.3333333,0,0,-1.3333333,0,793.70133)"
          clip-path="url(#clipPath5)" />
        <path id="path6"
          d="m 185.72,292.27 h 5.682 v -5.683 h -5.682 z m 0,27.148 h 5.682 v -5.605 h -5.682 z m 0,6.79 h 5.682 v -5.605 h -5.682 z m -6.861,-27.153 h 5.682 v -5.606 h -5.682 z m 0,13.578 h 5.682 v -5.609 h -5.682 z m 0,20.364 h 5.682 v -5.606 h -5.682 z m -6.863,-27.153 h 5.682 v -5.608 h -5.682 z m 0,6.789 h 5.682 v -5.609 h -5.682 z m 0,20.364 h 5.682 v -5.606 h -5.682 z m -6.861,-20.364 h 5.68 v -5.609 h -5.68 z m 0,20.364 h 5.68 v -5.606 h -5.68 z m -6.863,-40.727 h 5.682 v -5.683 h -5.682 z m 0,6.785 h 5.682 v -5.606 h -5.682 z m 0,6.789 h 5.682 v -5.608 h -5.682 z m 0,6.789 h 5.682 v -5.609 h -5.682 z m 0,6.785 h 5.682 v -5.605 h -5.682 z m 0,6.79 h 5.682 v -5.605 h -5.682 z m 0,6.789 h 5.682 v -5.606 h -5.682 z"
          style="fill:#000000;fill-opacity:1;fill-rule:nonzero;stroke:none"
          transform="matrix(1.3333333,0,0,-1.3333333,0,793.70133)"
          clip-path="url(#clipPath7)" />
        <path id="path8"
          d="m 226.293,292.27 h 5.684 v -5.683 h -5.684 z m 0,6.785 h 5.684 v -5.606 h -5.684 z m 0,6.789 h 5.684 v -5.608 h -5.684 z m 0,6.789 h 5.684 v -5.609 h -5.684 z m 0,6.785 h 5.684 v -5.605 h -5.684 z m 0,6.79 h 5.684 v -5.605 h -5.684 z m 0,6.789 h 5.684 v -5.606 h -5.684 z m -6.86,-6.789 h 5.682 v -5.605 h -5.682 z m -6.862,-13.575 h 5.68 v -5.609 h -5.68 z m 0,6.785 h 5.68 v -5.605 h -5.68 z m -6.863,6.79 h 5.68 v -5.605 h -5.68 z m -6.862,-33.938 h 5.682 v -5.683 h -5.682 z m 0,6.785 h 5.682 v -5.606 h -5.682 z m 0,6.789 h 5.682 v -5.608 h -5.682 z m 0,6.789 h 5.682 v -5.609 h -5.682 z m 0,6.785 h 5.682 v -5.605 h -5.682 z m 0,6.79 h 5.682 v -5.605 h -5.682 z m 0,6.789 h 5.682 v -5.606 h -5.682 z"
          style="fill:#000000;fill-opacity:1;fill-rule:nonzero;stroke:none"
          transform="matrix(1.3333333,0,0,-1.3333333,0,793.70133)"
          clip-path="url(#clipPath9)" />
        <path id="path10"
          d="m 267.095,292.27 h 5.684 v -5.683 h -5.684 z m 0,40.727 h 5.684 v -5.606 h -5.684 z m -6.861,-40.727 h 5.682 v -5.683 h -5.682 z m 0,20.363 h 5.682 v -5.609 h -5.682 z m 0,20.364 h 5.682 v -5.606 h -5.682 z m -6.861,-40.727 h 5.68 v -5.683 h -5.68 z m 0,20.363 h 5.68 v -5.609 h -5.68 z m 0,20.364 h 5.68 v -5.606 h -5.68 z M 246.51,292.27 h 5.682 v -5.683 h -5.682 z m 0,20.363 h 5.682 v -5.609 h -5.682 z m 0,20.364 h 5.682 v -5.606 h -5.682 z m -6.862,-40.727 h 5.683 v -5.683 h -5.683 z m 0,6.785 h 5.683 v -5.606 h -5.683 z m 0,6.789 h 5.683 v -5.608 h -5.683 z m 0,6.789 h 5.683 v -5.609 h -5.683 z m 0,6.785 h 5.683 v -5.605 h -5.683 z m 0,6.79 h 5.683 v -5.605 h -5.683 z m 0,6.789 h 5.683 v -5.606 h -5.683 z"
          style="fill:#000000;fill-opacity:1;fill-rule:nonzero;stroke:none"
          transform="matrix(1.3333333,0,0,-1.3333333,0,793.70133)"
          clip-path="url(#clipPath11)" />
        <path id="path12"
          d="m 326.566,299.055 h 5.68 v -5.606 h -5.68 z m 0,6.789 h 5.68 v -5.608 h -5.68 z m 0,27.153 h 5.68 v -5.606 h -5.68 z m -6.863,-40.727 h 5.68 v -5.683 h -5.68 z m 0,20.363 h 5.68 v -5.609 h -5.68 z m 0,13.575 h 5.68 v -5.605 h -5.68 z m 0,6.789 h 5.68 v -5.606 h -5.68 z M 312.84,292.27 h 5.682 v -5.683 h -5.682 z m 0,20.363 h 5.682 v -5.609 h -5.682 z m 0,6.785 h 5.682 v -5.605 h -5.682 z m 0,13.579 h 5.682 v -5.606 h -5.682 z m -6.862,-40.727 h 5.683 v -5.683 h -5.683 z m 0,20.363 h 5.683 v -5.609 h -5.683 z m 0,20.364 h 5.683 v -5.606 h -5.683 z m -6.86,-40.727 h 5.681 v -5.683 h -5.681 z m 0,40.727 h 5.681 v -5.606 h -5.681 z"
          style="fill:#000000;fill-opacity:1;fill-rule:nonzero;stroke:none"
          transform="matrix(1.3333333,0,0,-1.3333333,0,793.70133)"
          clip-path="url(#clipPath13)" />
        <path id="path14"
          d="m 391.528,299.055 h 5.682 v -5.606 h -5.682 z m 0,6.789 h 5.682 v -5.608 h -5.682 z m 0,27.153 h 5.682 v -5.606 h -5.682 z m -6.862,-40.727 h 5.683 v -5.683 h -5.683 z m 0,20.363 h 5.683 v -5.609 h -5.683 z m 0,13.575 h 5.683 v -5.605 h -5.683 z m 0,6.789 h 5.683 v -5.606 h -5.683 z m -6.861,-40.727 h 5.682 v -5.683 h -5.682 z m 0,20.363 h 5.682 v -5.609 h -5.682 z m 0,6.785 h 5.682 v -5.605 h -5.682 z m 0,13.579 h 5.682 v -5.606 h -5.682 z m -6.862,-40.727 h 5.68 v -5.683 h -5.68 z m 0,20.363 h 5.68 v -5.609 h -5.68 z m 0,20.364 h 5.68 v -5.606 h -5.68 z m -6.862,-40.727 h 5.682 v -5.683 h -5.682 z m 0,40.727 h 5.682 v -5.606 h -5.682 z"
          style="fill:#000000;fill-opacity:1;fill-rule:nonzero;stroke:none"
          transform="matrix(1.3333333,0,0,-1.3333333,0,793.70133)"
          clip-path="url(#clipPath15)" />
        <path id="path16"
          d="m 432.328,292.27 h 5.682 v -5.683 h -5.682 z m 0,27.148 h 5.682 v -5.605 h -5.682 z m 0,6.79 h 5.682 v -5.605 h -5.682 z m -6.86,-33.938 h 5.681 v -5.683 h -5.681 z m 0,20.363 h 5.681 v -5.609 h -5.681 z m 0,20.364 h 5.681 v -5.606 h -5.681 z m -6.86,-40.727 h 5.679 v -5.683 h -5.679 z m 0,13.574 h 5.679 v -5.608 h -5.679 z m 0,27.153 h 5.679 v -5.606 h -5.679 z m -6.863,-40.727 h 5.679 v -5.683 h -5.679 z m 0,6.785 h 5.679 v -5.606 h -5.679 z m 0,33.942 h 5.679 v -5.606 h -5.679 z m -6.863,-40.727 h 5.682 v -5.683 h -5.682 z m 0,33.938 h 5.682 v -5.605 h -5.682 z"
          style="fill:#000000;fill-opacity:1;fill-rule:nonzero;stroke:none"
          transform="matrix(1.3333333,0,0,-1.3333333,0,793.70133)"
          clip-path="url(#clipPath17)" />
        <path id="path18"
          d="m 474.728,299.055 h 5.681 v -5.606 h -5.681 z m 0,6.789 h 5.681 v -5.608 h -5.681 z m 0,6.789 h 5.681 v -5.609 h -5.681 z m 0,6.785 h 5.681 v -5.605 h -5.681 z m 0,6.79 h 5.681 v -5.605 h -5.681 z m -6.863,-33.938 h 5.681 v -5.683 h -5.681 z m 0,27.148 h 5.681 v -5.605 h -5.681 z m 0,13.579 h 5.681 v -5.606 h -5.681 z m -6.861,-40.727 h 5.68 v -5.683 h -5.68 z m 0,20.363 h 5.68 v -5.609 h -5.68 z m 0,20.364 h 5.68 v -5.606 h -5.68 z m -6.863,-40.727 h 5.682 v -5.683 h -5.682 z m 0,13.574 h 5.682 v -5.608 h -5.682 z m 0,27.153 h 5.682 v -5.606 h -5.682 z m -6.863,-33.942 h 5.681 v -5.606 h -5.681 z m 0,6.789 h 5.681 v -5.608 h -5.681 z m 0,6.789 h 5.681 v -5.609 h -5.681 z m 0,6.785 h 5.681 v -5.605 h -5.681 z m 0,6.79 h 5.681 v -5.605 h -5.681 z"
          style="fill:#000000;fill-opacity:1;fill-rule:nonzero;stroke:none"
          transform="matrix(1.3333333,0,0,-1.3333333,0,793.70133)"
          clip-path="url(#clipPath19)" />
        <path id="path20"
          d="m 516.669,305.844 h 5.681 v -5.608 h -5.681 z m -6.863,-13.574 h 5.682 v -5.683 h -5.682 z m 0,6.785 h 5.682 v -5.606 h -5.682 z m 0,6.789 h 5.682 v -5.608 h -5.682 z m 0,6.789 h 5.682 v -5.609 h -5.682 z m 0,6.785 h 5.682 v -5.605 h -5.682 z m 0,6.79 h 5.682 v -5.605 h -5.682 z m 0,6.789 h 5.682 v -5.606 h -5.682 z m -6.861,-27.153 h 5.681 v -5.608 h -5.681 z m 0,20.364 h 5.681 v -5.605 h -5.681 z m -6.863,-20.364 h 5.683 v -5.608 h -5.683 z m 0,13.574 h 5.683 v -5.605 h -5.683 z m -6.861,-13.574 h 5.683 v -5.608 h -5.683 z m 0,6.789 h 5.683 v -5.609 h -5.683 z"
          style="fill:#000000;fill-opacity:1;fill-rule:nonzero;stroke:none"
          transform="matrix(1.3333333,0,0,-1.3333333,0,793.70133)"
          clip-path="url(#clipPath21)" />
        <path id="path22"
          d="m 555.19,299.055 h 5.682 v -5.606 h -5.682 z m 0,6.789 h 5.682 v -5.608 h -5.682 z m 0,27.153 h 5.682 v -5.606 h -5.682 z m -6.86,-40.727 h 5.679 v -5.683 h -5.679 z m 0,20.363 h 5.679 v -5.609 h -5.679 z m 0,13.575 h 5.679 v -5.605 h -5.679 z m 0,6.789 h 5.679 v -5.606 h -5.679 z m -6.863,-40.727 h 5.682 v -5.683 h -5.682 z m 0,20.363 h 5.682 v -5.609 h -5.682 z m 0,6.785 h 5.682 v -5.605 h -5.682 z m 0,13.579 h 5.682 v -5.606 h -5.682 z m -6.863,-40.727 h 5.681 v -5.683 h -5.681 z m 0,20.363 h 5.681 v -5.609 h -5.681 z m 0,20.364 h 5.681 v -5.606 h -5.681 z m -6.861,-40.727 h 5.681 v -5.683 h -5.681 z m 0,40.727 h 5.681 v -5.606 h -5.681 z"
          style="fill:#000000;fill-opacity:1;fill-rule:nonzero;stroke:none"
          transform="matrix(1.3333333,0,0,-1.3333333,0,793.70133)"
          clip-path="url(#clipPath23)" />
        <path id="path24"
          d="m 595.992,292.27 h 5.681 v -5.683 h -5.681 z m 0,27.148 h 5.681 v -5.605 h -5.681 z m 0,6.79 h 5.681 v -5.605 h -5.681 z m -6.861,-33.938 h 5.681 v -5.683 h -5.681 z m 0,20.363 h 5.681 v -5.609 h -5.681 z m 0,20.364 h 5.681 v -5.606 h -5.681 z m -6.863,-40.727 h 5.682 v -5.683 h -5.682 z m 0,13.574 h 5.682 v -5.608 h -5.682 z m 0,27.153 h 5.682 v -5.606 h -5.682 z m -6.861,-40.727 h 5.681 v -5.683 h -5.681 z m 0,6.785 h 5.681 v -5.606 h -5.681 z m 0,33.942 h 5.681 v -5.606 h -5.681 z m -6.863,-40.727 h 5.682 v -5.683 h -5.682 z m 0,33.938 h 5.682 v -5.605 h -5.682 z"
          style="fill:#000000;fill-opacity:1;fill-rule:nonzero;stroke:none"
          transform="matrix(1.3333333,0,0,-1.3333333,0,793.70133)"
          clip-path="url(#clipPath25)" />
        <path id="path26"
          d="m 636.794,292.27 h 5.682 v -5.683 h -5.682 z m 0,27.148 h 5.682 v -5.605 h -5.682 z m 0,6.79 h 5.682 v -5.605 h -5.682 z m -6.862,-33.938 h 5.683 v -5.683 h -5.683 z m 0,20.363 h 5.683 v -5.609 h -5.683 z m 0,20.364 h 5.683 v -5.606 h -5.683 z m -6.863,-40.727 h 5.683 v -5.683 h -5.683 z m 0,13.574 h 5.683 v -5.608 h -5.683 z m 0,27.153 h 5.683 v -5.606 h -5.683 z m -6.861,-40.727 h 5.683 v -5.683 h -5.683 z m 0,6.785 h 5.683 v -5.606 h -5.683 z m 0,33.942 h 5.683 v -5.606 h -5.683 z m -6.862,-40.727 h 5.682 v -5.683 h -5.682 z m 0,33.938 h 5.682 v -5.605 h -5.682 z"
          style="fill:#000000;fill-opacity:1;fill-rule:nonzero;stroke:none"
          transform="matrix(1.3333333,0,0,-1.3333333,0,793.70133)"
          clip-path="url(#clipPath27)" />
        <path id="path28"
          d="m 677.597,299.055 h 5.682 v -5.606 h -5.682 z m 0,6.789 h 5.682 v -5.608 h -5.682 z m 0,13.574 h 5.682 v -5.605 h -5.682 z m 0,6.79 h 5.682 v -5.605 h -5.682 z m -6.863,-33.938 h 5.681 v -5.683 h -5.681 z m 0,20.363 h 5.681 v -5.609 h -5.681 z m 0,20.364 h 5.681 v -5.606 h -5.681 z m -6.861,-40.727 h 5.68 v -5.683 h -5.68 z m 0,20.363 h 5.68 v -5.609 h -5.68 z m 0,20.364 h 5.68 v -5.606 h -5.68 z m -6.862,-40.727 h 5.681 v -5.683 h -5.681 z m 0,20.363 h 5.681 v -5.609 h -5.681 z m 0,20.364 h 5.681 v -5.606 h -5.681 z m -6.862,-33.942 h 5.68 v -5.606 h -5.68 z m 0,6.789 h 5.68 v -5.608 h -5.68 z m 0,13.574 h 5.68 v -5.605 h -5.68 z m 0,6.79 h 5.68 v -5.605 h -5.68 z"
          style="fill:#000000;fill-opacity:1;fill-rule:nonzero;stroke:none"
          transform="matrix(1.3333333,0,0,-1.3333333,0,793.70133)"
          clip-path="url(#clipPath29)" />
        <path id="path30"
          d="m 722.94,305.844 h -5.683 v -5.608 h 5.683 z m 0,6.789 h -5.683 v -5.609 h 5.683 z m 0,6.785 h -5.683 v -5.605 h 5.683 z m 0,6.79 h -5.683 v -5.605 h 5.683 z m 0,-27.153 h -5.683 v -5.606 h 5.683 z m -6.863,13.578 h -5.683 v -5.609 h 5.683 z m 0,20.364 h -5.683 v -5.606 h 5.683 z m 0.002,-40.727 h -5.683 v -5.683 h 5.683 z m -6.862,20.363 h -5.683 v -5.609 h 5.683 z m 0,20.364 h -5.683 v -5.606 h 5.683 z m 0,-40.727 h -5.683 v -5.683 h 5.683 z m -6.863,20.363 h -5.683 v -5.609 h 5.683 z m 0,20.364 h -5.683 v -5.606 h 5.683 z m -6.862,-13.579 h -5.682 v -5.605 h 5.682 z m -5.681,6.79 h 5.682 v -5.605 h -5.682 z"
          style="fill:#000000;fill-opacity:1;fill-rule:nonzero;stroke:none"
          transform="matrix(1.3333333,0,0,-1.3333333,0,793.70133)"
          clip-path="url(#clipPath31)" />
        <path id="path32"
          d="m 763.741,299.055 h -5.681 v -5.606 h 5.681 z m 0,6.789 h -5.681 v -5.608 h 5.681 z m -6.862,-13.574 h -5.68 v -5.683 h 5.68 z m 0,20.363 h -5.68 v -5.609 h 5.68 z m -6.863,20.364 h -5.68 v -5.606 h 5.68 z m 0.002,-40.727 h -5.682 v -5.683 h 5.682 z m 0,20.363 h -5.682 v -5.609 h 5.682 z m -6.864,20.364 h -5.681 v -5.606 h 5.681 z m 0,-40.727 h -5.679 v -5.683 h 5.679 z m 0,20.363 h -5.679 v -5.609 h 5.679 z m -6.86,-13.578 h -5.682 v -5.606 h 5.682 z m 0,6.789 h -5.682 v -5.608 h 5.682 z m 0,20.364 h -5.682 v -5.609 h 5.682 z m 0,-13.575 h -5.682 v -5.609 h 5.682 z m -5.682,6.785 h 5.682 v -5.605 h -5.682 z"
          style="fill:#000000;fill-opacity:1;fill-rule:nonzero;stroke:none"
          transform="matrix(1.3333333,0,0,-1.3333333,0,793.70133)"
          clip-path="url(#clipPath33)" />
        <path id="path34"
          d="m 348.983,326.208 h 5.681 v -5.605 h -5.681 z m -6.862,-6.79 h 5.682 v -5.605 h -5.682 z m 6.862,13.579 h 5.681 v -5.606 h -5.681 z m -6.862,0 h 5.682 v -5.606 h -5.682 z"
          style="fill:#000000;fill-opacity:1;fill-rule:nonzero;stroke:none"
          transform="matrix(1.3333333,0,0,-1.3333333,0,793.70133)"
          clip-path="url(#clipPath35)" />
      </g>
    </g>
  </svg>
